HIERARCHY
ROOT pelvis
{
  OFFSET 0 100 0
  CHANNELS 6 Xposition Yposition Zposition Zrotation Xrotation Yrotation
  JOINT pelvis_right_femur
  {
    OFFSET -10.78128 -3.44521 -0.5502486
    CHANNELS 3 Zrotation Xrotation Yrotation
    JOINT right_femur_tibia
    {
      OFFSET -0.8047443 -44.0398 -0.1307829
      CHANNELS 3 Zrotation Xrotation Yrotation
      JOINT right_tibia_foot
      {
        OFFSET 3.006224 -47.83518 -5
        CHANNELS 3 Zrotation Xrotation Yrotation
        End Site
        {
          OFFSET 0 -5 15
        }
      }
    }
  }
  JOINT pelvis_left_femur
  {
    OFFSET 10.78128 -3.44521 -0.5502486
    CHANNELS 3 Zrotation Xrotation Yrotation
    JOINT left_femur_tibia
    {
      OFFSET 0.8047443 -44.0398 -0.1307829
      CHANNELS 3 Zrotation Xrotation Yrotation
      JOINT left_tibia_foot
      {
        OFFSET -4.370144 -48.10324 -4.275266
        CHANNELS 3 Zrotation Xrotation Yrotation
        End Site
        {
          OFFSET 0 -5 15
        }
      }
    }
  }
  JOINT pelvis_spine1
  {
    OFFSET 0 6.468898 -3.129235
    CHANNELS 3 Zrotation Xrotation Yrotation
    JOINT spine1
    {
      OFFSET 0 23.15396 4.99043
      CHANNELS 3 Zrotation Xrotation Yrotation
      JOINT spine2
      {
        OFFSET 0 20.79997 -5.064912
        CHANNELS 3 Zrotation Xrotation Yrotation
        JOINT neck
        {
          OFFSET 0 14.38658 9.616178
          CHANNELS 3 Zrotation Xrotation Yrotation
          End Site
          {
            OFFSET 0 20 0
          }
        }
      }
      JOINT right_manubrium
      {
        OFFSET -5.722621 16.35077 3.967754
        CHANNELS 3 Zrotation Xrotation Yrotation
        JOINT right_clavicle
        {
          OFFSET -13.16364 1.694482 -4.693211
          CHANNELS 3 Zrotation Xrotation Yrotation
          JOINT right_humerus
          {
            OFFSET -28.5034 -0.3100689 -2.792744
            CHANNELS 3 Zrotation Xrotation Yrotation
            JOINT right_radius
            {
              OFFSET -25.15693 0.02248979 -1.271978
              CHANNELS 3 Zrotation Xrotation Yrotation
              End Site
              {
                OFFSET -15 0 0
              }
            }
          }
        }
      }
      JOINT left_manubrium
      {
        OFFSET 5.722621 16.35077 3.967754
        CHANNELS 3 Zrotation Xrotation Yrotation
        JOINT left_clavicle
        {
          OFFSET 13.16364 1.694482 -4.693211
          CHANNELS 3 Zrotation Xrotation Yrotation
          JOINT left_humerus
          {
            OFFSET 29.39168 -1.063119 -2.237045
            CHANNELS 3 Zrotation Xrotation Yrotation
            JOINT left_radius
            {
              OFFSET 24.59957 -0.9528479 0.9047498
              CHANNELS 3 Zrotation Xrotation Yrotation
              End Site
              {
                OFFSET 15 -0 -0
              }
            }
          }
        }
      }
    }
  }
}
MOTION
Frames: 11
Frame Time: 0.0416666666667
-1107.41 162.4697 115.2798 7.389131 7.017274 139.1697 5.919309 14.74995 -0.5501802 -0 15.13555 -0 -11.56142 -13.82488 -1.788223 4.206433 -19.10705 -3.979564 -0 12.27171 -0 0.8906848 -1.505991 15.82408 1.228627 -2.766314 7.008768 0.2283606 15.34001 -5.409089 1.226704 21.42512 2.316925 0.8389464 -17.98768 4.267668 -2.412448 -30.67477 12.74939 88.85857 15.17724 -9.343314 -0 0 27.39001 -23.17102 14.4447 13.89024 2.01166 -22.56101 -8.756188 -97.0323 14.82539 36.59771 0 0 -4.973462 4.51759 16.71368 6.213653
-1104.828 162.3516 110.8629 7.448862 6.953796 138.6786 5.919309 14.74995 -0.5501802 -0 15.13555 -0 -11.56142 -13.82488 -1.788223 4.206433 -19.10705 -3.979564 -0 12.27171 -0 0.8906848 -1.505991 15.82408 1.228627 -2.766314 7.008768 0.2283606 15.34001 -5.409089 1.226704 21.42512 2.316925 0.8389464 -17.98768 4.267668 -2.412448 -30.67477 12.74939 88.85857 15.17724 -9.343314 -0 0 27.39001 -23.17102 14.4447 13.89024 2.01166 -22.56101 -8.756188 -97.0323 14.82539 36.59771 0 0 -4.973462 4.51759 16.71368 6.213653
-1102.207 162.2334 106.4683 7.508035 6.889813 138.1876 5.919309 14.74995 -0.5501802 -0 15.13555 -0 -11.56142 -13.82488 -1.788223 4.206433 -19.10705 -3.979564 -0 12.27171 -0 0.8906848 -1.505991 15.82408 1.228627 -2.766314 7.008768 0.2283606 15.34001 -5.409089 1.226704 21.42512 2.316925 0.8389464 -17.98768 4.267668 -2.412448 -30.67477 12.74939 88.85857 15.17724 -9.343314 -0 0 27.39001 -23.17102 14.4447 13.89024 2.01166 -22.56101 -8.756188 -97.0323 14.82539 36.59771 0 0 -4.973462 4.51759 16.71368 6.213653
-1099.549 162.1153 102.0963 7.566645 6.825328 137.6967 5.919309 14.74995 -0.5501802 -0 15.13555 -0 -11.56142 -13.82488 -1.788223 4.206433 -19.10705 -3.979564 -0 12.27171 -0 0.8906848 -1.505991 15.82408 1.228627 -2.766314 7.008768 0.2283606 15.34001 -5.409089 1.226704 21.42512 2.316925 0.8389464 -17.98768 4.267668 -2.412448 -30.67477 12.74939 88.85857 15.17724 -9.343314 -0 0 27.39001 -23.17102 14.4447 13.89024 2.01166 -22.56101 -8.756188 -97.0323 14.82539 36.59771 0 0 -4.973462 4.51759 16.71368 6.213653
-1096.854 161.9971 97.74734 7.624689 6.760347 137.206 5.919309 14.74995 -0.5501802 -0 15.13555 -0 -11.56142 -13.82488 -1.788223 4.206433 -19.10705 -3.979564 -0 12.27171 -0 0.8906848 -1.505991 15.82408 1.228627 -2.766314 7.008768 0.2283606 15.34001 -5.409089 1.226704 21.42512 2.316925 0.8389464 -17.98768 4.267668 -2.412448 -30.67477 12.74939 88.85857 15.17724 -9.343314 -0 0 27.39001 -23.17102 14.4447 13.89024 2.01166 -22.56101 -8.756188 -97.0323 14.82539 36.59771 0 0 -4.973462 4.51759 16.71368 6.213653
-1094.122 161.879 93.42164 7.682163 6.694875 136.7154 5.919309 14.74995 -0.5501802 -0 15.13555 -0 -11.56142 -13.82488 -1.788223 4.206433 -19.10705 -3.979564 -0 12.27171 -0 0.8906848 -1.505991 15.82408 1.228627 -2.766314 7.008768 0.2283606 15.34001 -5.409089 1.226704 21.42512 2.316925 0.8389464 -17.98768 4.267668 -2.412448 -30.67477 12.74939 88.85857 15.17724 -9.343314 -0 0 27.39001 -23.17102 14.4447 13.89024 2.01166 -22.56101 -8.756188 -97.0323 14.82539 36.59771 0 0 -4.973462 4.51759 16.71368 6.213653
-1091.352 161.7608 89.11955 7.739062 6.628917 136.2249 5.919309 14.74995 -0.5501802 -0 15.13555 -0 -11.56142 -13.82488 -1.788223 4.206433 -19.10705 -3.979564 -0 12.27171 -0 0.8906848 -1.505991 15.82408 1.228627 -2.766314 7.008768 0.2283606 15.34001 -5.409089 1.226704 21.42512 2.316925 0.8389464 -17.98768 4.267668 -2.412448 -30.67477 12.74939 88.85857 15.17724 -9.343314 -0 0 27.39001 -23.17102 14.4447 13.89024 2.01166 -22.56101 -8.756188 -97.0323 14.82539 36.59771 0 0 -4.973462 4.51759 16.71368 6.213653
-1088.546 161.6427 84.84137 7.795384 6.562477 135.7346 5.919309 14.74995 -0.5501802 -0 15.13555 -0 -11.56142 -13.82488 -1.788223 4.206433 -19.10705 -3.979564 -0 12.27171 -0 0.8906848 -1.505991 15.82408 1.228627 -2.766314 7.008768 0.2283606 15.34001 -5.409089 1.226704 21.42512 2.316925 0.8389464 -17.98768 4.267668 -2.412448 -30.67477 12.74939 88.85857 15.17724 -9.343314 -0 0 27.39001 -23.17102 14.4447 13.89024 2.01166 -22.56101 -8.756188 -97.0323 14.82539 36.59771 0 0 -4.973462 4.51759 16.71368 6.213653
-1085.703 161.5245 80.58744 7.851123 6.495562 135.2444 5.919309 14.74995 -0.5501802 -0 15.13555 -0 -11.56142 -13.82488 -1.788223 4.206433 -19.10705 -3.979564 -0 12.27171 -0 0.8906848 -1.505991 15.82408 1.228627 -2.766314 7.008768 0.2283606 15.34001 -5.409089 1.226704 21.42512 2.316925 0.8389464 -17.98768 4.267668 -2.412448 -30.67477 12.74939 88.85857 15.17724 -9.343314 -0 0 27.39001 -23.17102 14.4447 13.89024 2.01166 -22.56101 -8.756188 -97.0323 14.82539 36.59771 0 0 -4.973462 4.51759 16.71368 6.213653
-1082.824 161.4063 76.35805 7.906278 6.428174 134.7543 5.919309 14.74995 -0.5501802 -0 15.13555 -0 -11.56142 -13.82488 -1.788223 4.206433 -19.10705 -3.979564 -0 12.27171 -0 0.8906848 -1.505991 15.82408 1.228627 -2.766314 7.008768 0.2283606 15.34001 -5.409089 1.226704 21.42512 2.316925 0.8389464 -17.98768 4.267668 -2.412448 -30.67477 12.74939 88.85857 15.17724 -9.343314 -0 0 27.39001 -23.17102 14.4447 13.89024 2.01166 -22.56101 -8.756188 -97.0323 14.82539 36.59771 0 0 -4.973462 4.51759 16.71368 6.213653
-1079.908 161.2882 72.15352 7.960842 6.360321 134.2644 5.919309 14.74995 -0.5501802 -0 15.13555 -0 -11.56142 -13.82488 -1.788223 4.206433 -19.10705 -3.979564 -0 12.27171 -0 0.8906848 -1.505991 15.82408 1.228627 -2.766314 7.008768 0.2283606 15.34001 -5.409089 1.226704 21.42512 2.316925 0.8389464 -17.98768 4.267668 -2.412448 -30.67477 12.74939 88.85857 15.17724 -9.343314 -0 0 27.39001 -23.17102 14.4447 13.89024 2.01166 -22.56101 -8.756188 -97.0323 14.82539 36.59771 0 0 -4.973462 4.51759 16.71368 6.213653
